Coordinates
version=1
nRows=5
nColumns=63
inDegrees=yes

Units are S.I. units (second, meters, Newtons, ...)
If the header above contains a line with 'inDegrees', this indicates whether rotational values are in degrees (yes) or radians (no).

endheader
time	pelvis_tilt	pelvis_list	pelvis_rotation	pelvis_tx	pelvis_ty	pelvis_tz	hip_flexion_r	hip_adduction_r	hip_rotation_r	knee_angle_r	knee_angle_r_beta	ankle_angle_r	subtalar_angle_r	mtp_angle_r	hip_flexion_l	hip_adduction_l	hip_rotation_l	knee_angle_l	knee_angle_l_beta	ankle_angle_l	subtalar_angle_l	mtp_angle_l	L5_S1_Flex_Ext	L5_S1_Lat_Bending	L5_S1_axial_rotation	L4_L5_Flex_Ext	L4_L5_Lat_Bending	L4_L5_axial_rotation	L3_L4_Flex_Ext	L3_L4_Lat_Bending	L3_L4_axial_rotation	L2_L3_Flex_Ext	L2_L3_Lat_Bending	L2_L3_axial_rotation	L1_L2_Flex_Ext	L1_L2_Lat_Bending	L1_L2_axial_rotation	L1_T12_Flex_Ext	L1_T12_Lat_Bending	L1_T12_axial_rotation	Abs_r3	Abs_r2	Abs_r1	Abs_t1	Abs_t2	neck_flexion	neck_bending	neck_rotation	arm_flex_r	arm_add_r	arm_rot_r	elbow_flex_r	pro_sup_r	wrist_flex_r	wrist_dev_r	arm_flex_l	arm_add_l	arm_rot_l	elbow_flex_l	pro_sup_l	wrist_flex_l	wrist_dev_l
      3.36666667	      1.14720961	     -7.63753912	     91.21688556	      0.16443147	      1.01320090	      0.49605550	      2.88043184	      1.61223336	    -14.75318296	      9.61808971	      0.16786733	     36.19847501	     17.56386795	      0.00000000	      2.42716471	     -0.28928387	    -12.36539172	      9.36440584	      0.16343971	     36.22448122	      8.89977971	      0.00000000	     -0.23704378	      0.27380082	     -0.21156333	     -0.44021401	      0.36415509	     -0.22478604	     -0.38943923	      0.66571932	     -0.22478604	     -0.27091734	      0.66571932	     -0.18511791	     -0.22011885	      0.55833464	     -0.17189520	     -0.13544682	      0.42411748	     -0.15867250	     -1.69318002	      3.09728967	     -1.17665176	      0.00000000	      0.00000000	    -10.03176422	      6.07737703	      3.61480577	     45.39978022	    -33.68351571	     38.39517432	    102.32876962	     85.81514521	     -9.20270462	      8.21780640	   -323.09921408	    -34.13495116	   -333.41632099	     98.89164173	     58.67476932	     14.20458125	      6.98749882
      3.38333333	      1.19977356	     -7.49487375	     90.84850351	      0.16419607	      1.01361205	      0.49701283	      2.73998800	      1.60077762	    -14.34190829	      9.59375308	      0.16744258	     36.10889485	     17.47043049	      0.00000000	      2.31712612	     -0.29456201	    -12.77026527	      9.48899194	      0.16561415	     36.08187044	      8.50707215	      0.00000000	     -0.29463055	      0.29552035	     -0.39651135	     -0.54715840	      0.39304207	     -0.42129331	     -0.48404853	      0.71852819	     -0.42129331	     -0.33673326	      0.71852819	     -0.34694743	     -0.27359393	      0.60262510	     -0.32216547	     -0.16835190	      0.45776103	     -0.29738351	     -2.10451656	      3.34298534	     -2.20527718	      0.00000000	      0.00000000	    -10.58827761	      5.60895406	      5.58176930	     46.59600056	    -31.91603348	     39.38345128	    101.13166584	     85.95286413	     -9.58834286	      8.00207936	   -325.23479612	    -34.14343491	   -337.04499124	     99.46936029	     63.45690093	     11.34879094	      5.27685694
      3.40000000	      1.16773473	     -7.46236588	     90.49216325	      0.16438282	      1.01367770	      0.49813498	      2.67535928	      1.54239037	    -14.08268976	      9.45171295	      0.16496351	     35.96189307	     17.48657664	      0.00000000	      2.33693525	     -0.25391700	    -13.28959031	      9.62867217	      0.16805203	     35.84176601	      8.26247241	      0.00000000	     -0.33940517	      0.29473434	     -0.46628148	     -0.63030934	      0.39199667	     -0.49542407	     -0.55760875	      0.71661707	     -0.49542407	     -0.38790617	      0.71661707	     -0.40799629	     -0.31517164	      0.60102227	     -0.37885370	     -0.19393611	      0.45654349	     -0.34971111	     -2.42433717	      3.33409380	     -2.59331771	      0.00000000	      0.00000000	    -10.95723763	      5.58425703	      6.58906805	     47.26182712	    -30.88515003	     40.06146209	    100.56051049	     84.61062628	     -9.12134254	      7.75879474	   -326.12179807	    -33.54762712	   -339.36554103	     99.34481333	     65.99510127	      9.60249032	      4.52505694
      3.41666667	      1.12154801	     -7.49494740	     90.34639769	      0.16444205	      1.01349900	      0.49929366	      2.67414624	      1.47674260	    -13.99856145	      9.32367209	      0.16272878	     35.79913974	     17.40960222	      0.00000000	      2.50400890	     -0.24983175	    -13.87688763	      9.89739076	      0.17274206	     35.66769527	      8.40113689	      0.00000000	     -0.37359802	      0.29196490	     -0.49098361	     -0.69380887	      0.38831331	     -0.52167009	     -0.61378418	      0.70988345	     -0.52167009	     -0.42698517	      0.70988345	     -0.42961066	     -0.34692312	      0.59537481	     -0.39892418	     -0.21347391	      0.45225362	     -0.36823771	     -2.66857326	      3.30276529	     -2.73070356	      0.00000000	      0.00000000	    -11.22967746	      5.46676337	      7.09250473	     47.95434138	    -30.37336717	     41.03315099	    100.23879675	     80.96422000	     -7.62780133	      7.29051486	   -326.15663534	    -32.66287701	   -340.57573456	     98.90857509	     67.14003804	      8.45392364	      4.61998465
      3.43333333	      1.15457807	     -7.51596964	     90.16388136	      0.16477203	      1.01312787	      0.50065452	      2.67719599	      1.51801894	    -13.87555156	      9.18789260	      0.16035898	     35.61041563	     17.38014223	      0.00000000	      2.72419590	     -0.36722875	    -14.43348604	     10.27296833	      0.17929712	     35.67653763	      8.51816250	      0.00000000	     -0.41284709	      0.28977141	     -0.42698264	     -0.76669833	      0.38539597	     -0.45366906	     -0.67826648	      0.70455020	     -0.45366906	     -0.47184294	      0.70455020	     -0.37360981	     -0.38336981	      0.59090186	     -0.34692340	     -0.23590083	      0.44885591	     -0.32023698	     -2.94892547	      3.27795214	     -2.37474936	      0.00000000	      0.00000000	    -11.19472542	      5.94079562	      7.05391606	     48.71972075	    -30.24635673	     41.91852357	    100.01659552	     76.52175956	     -4.46630726	      6.99021366	   -325.31983339	    -31.55890207	   -340.60207775	     98.20195404	     66.41676766	      7.93046780	      5.58192397
